<?xml version="1.0" encoding="utf-8"?>
<!-- Generator: Adobe Illustrator 22.0.1, SVG Export Plug-In . SVG Version: 6.00 Build 0)  -->
<svg version="1.1" id="Layer_1" xmlns="http://www.w3.org/2000/svg" xmlns:xlink="http://www.w3.org/1999/xlink" x="0px" y="0px"
	 viewBox="0 0 143 143" style="enable-background:new 0 0 143 143;" xml:space="preserve">
<style type="text/css">
	.st0{fill:#FFFFFF;}
	.st1{fill:#3FB76D;}
</style>
<g>
	
		<ellipse transform="matrix(0.7071 -0.7071 0.7071 0.7071 -29.6163 71.5001)" class="st0" cx="71.5" cy="71.5" rx="70.1" ry="70.1"/>
	<path class="st1" d="M71.5,2.8c37.9,0,68.7,30.8,68.7,68.7s-30.8,68.7-68.7,68.7S2.8,109.4,2.8,71.5S33.6,2.8,71.5,2.8 M71.5,0
		C32,0,0,32,0,71.5S32,143,71.5,143S143,111,143,71.5S111,0,71.5,0L71.5,0z"/>
</g>
<g>
	<path class="st1" d="M52.7,48.3c0.9,0,1.7-0.4,2.3-1.2c0.9-1.3,0.6-3-0.6-3.9c-1.2-0.9-3-0.6-3.9,0.6c-0.9,1.3-0.6,3,0.6,3.9
		C51.5,48.1,52.1,48.3,52.7,48.3L52.7,48.3z M52.7,48.3"/>
	<path class="st1" d="M39.5,77.9c-0.6,0.4-1,1.1-1.1,1.8c-0.1,0.7,0.1,1.5,0.5,2.1c0.5,0.7,1.4,1.2,2.3,1.2c0.6,0,1.2-0.2,1.7-0.5
		c1.2-0.9,1.5-2.7,0.6-3.9C42.5,77.3,40.7,77,39.5,77.9L39.5,77.9z M41.1,81.6l0-1.4l0,0L41.1,81.6z M41.1,81.6"/>
	<path class="st1" d="M111.6,110.2H70.8c-21.7,0-39.4-17.7-39.4-39.4c0-21.7,17.7-39.4,39.4-39.4c21.7,0,39.4,17.7,39.4,39.4
		c0,13.9-7.1,26.5-19,33.7c-0.7,0.4-0.9,1.3-0.5,1.9c0.4,0.7,1.3,0.9,1.9,0.5c12.8-7.7,20.4-21.2,20.4-36.1
		c0-23.3-18.9-42.2-42.2-42.2S28.6,47.5,28.6,70.8S47.5,113,70.8,113h40.8c0.8,0,1.4-0.6,1.4-1.4C113,110.8,112.4,110.2,111.6,110.2
		L111.6,110.2z M111.6,110.2"/>
	<path class="st1" d="M49.4,75.1c4.9,0,9.2-3.1,10.7-7.8c1.9-5.9-1.3-12.3-7.2-14.2c-1.1-0.4-2.3-0.6-3.5-0.6
		c-4.9,0-9.2,3.1-10.7,7.8c-1.9,5.9,1.3,12.3,7.2,14.2C47.1,74.9,48.2,75.1,49.4,75.1L49.4,75.1z M41.4,61.2c1.1-3.5,4.4-5.8,8-5.8
		c0.9,0,1.8,0.1,2.6,0.4c4.4,1.4,6.9,6.2,5.4,10.6c-1.1,3.5-4.4,5.8-8,5.8c-0.9,0-1.8-0.1-2.6-0.4C42.4,70.4,39.9,65.7,41.4,61.2
		L41.4,61.2z M41.4,61.2"/>
	<path class="st1" d="M70.6,104.7c0.3,0,0.6,0,0.9-0.1c1.5-0.5,2.3-2.1,1.8-3.5c-0.5-1.4-2.1-2.3-3.5-1.8c-0.7,0.2-1.3,0.7-1.6,1.4
		c-0.3,0.7-0.4,1.4-0.2,2.1C68.3,104,69.3,104.7,70.6,104.7L70.6,104.7z M70.6,104.7"/>
	<path class="st1" d="M51,98.1c1.9,1.4,4.2,2.1,6.6,2.1c3.6,0,7-1.7,9.1-4.6c3.6-5,2.5-12.1-2.5-15.7c-1.9-1.4-4.2-2.1-6.6-2.1
		c-3.6,0-7,1.7-9.1,4.6c-1.8,2.4-2.5,5.4-2,8.4C46.9,93.7,48.5,96.3,51,98.1L51,98.1z M50.8,84c1.6-2.2,4.1-3.5,6.8-3.5
		c1.8,0,3.5,0.6,5,1.6c3.8,2.7,4.6,8,1.9,11.8c-1.6,2.2-4.1,3.5-6.8,3.5c-1.8,0-3.5-0.6-5-1.6c-1.8-1.3-3-3.3-3.4-5.5
		C48.9,88.1,49.4,85.9,50.8,84L50.8,84z M50.8,84"/>
	<path class="st1" d="M84,100.3L84,100.3c2.4,0,4.7-0.7,6.6-2.1c5-3.6,6.1-10.7,2.5-15.7c-2.1-2.9-5.5-4.6-9.1-4.6
		c-2.4,0-4.7,0.7-6.6,2.1c-5,3.6-6.1,10.7-2.5,15.7C77,98.5,80.4,100.2,84,100.3L84,100.3z M79.1,82.2c1.5-1.1,3.2-1.6,5-1.6
		c2.7,0,5.3,1.3,6.8,3.5c2.7,3.8,1.9,9.1-1.9,11.8c-1.5,1.1-3.2,1.6-4.9,1.6h0c-2.7,0-5.3-1.3-6.8-3.5
		C74.5,90.2,75.3,84.9,79.1,82.2L79.1,82.2z M79.1,82.2"/>
	<path class="st1" d="M65.2,70.8c0,3.1,2.5,5.6,5.6,5.6c3.1,0,5.6-2.5,5.6-5.6c0-3.1-2.5-5.6-5.6-5.6C67.7,65.2,65.2,67.7,65.2,70.8
		L65.2,70.8z M73.6,70.8c0,1.6-1.3,2.8-2.8,2.8c-1.6,0-2.8-1.3-2.8-2.8c0-1.6,1.3-2.8,2.8-2.8C72.4,68,73.6,69.2,73.6,70.8
		L73.6,70.8z M73.6,70.8"/>
	<path class="st1" d="M89.3,48.6c1.2,0,2.3-0.8,2.7-1.9c0.5-1.5-0.3-3.1-1.8-3.5c-1.4-0.5-3.1,0.4-3.5,1.8c-0.5,1.5,0.3,3.1,1.8,3.5
		C88.7,48.5,89,48.6,89.3,48.6L89.3,48.6z M89.3,48.6"/>
	<path class="st1" d="M81.5,67.3c1.5,4.7,5.8,7.8,10.7,7.8c1.2,0,2.3-0.2,3.5-0.6c2.9-0.9,5.2-2.9,6.5-5.6c1.4-2.7,1.6-5.7,0.7-8.6
		c-1.5-4.7-5.8-7.8-10.7-7.8c-1.2,0-2.3,0.2-3.5,0.6C82.8,55.1,79.6,61.4,81.5,67.3L81.5,67.3z M89.6,55.8c0.8-0.3,1.7-0.4,2.6-0.4
		c3.7,0,6.9,2.3,8,5.8c0.7,2.1,0.5,4.4-0.5,6.4c-1,2-2.8,3.5-4.9,4.2c-0.9,0.3-1.7,0.4-2.6,0.4c-3.7,0-6.9-2.3-8-5.8
		C82.7,62,85.2,57.3,89.6,55.8L89.6,55.8z M89.6,55.8"/>
	<path class="st1" d="M70.8,37.1c-6.2,0-11.2,5-11.2,11.2c0,6.2,5,11.2,11.2,11.2c6.2,0,11.2-5,11.2-11.2
		C82.1,42.1,77,37.1,70.8,37.1L70.8,37.1z M70.8,56.7c-4.7,0-8.4-3.8-8.4-8.4c0-4.7,3.8-8.4,8.4-8.4c4.7,0,8.4,3.8,8.4,8.4
		C79.2,53,75.5,56.7,70.8,56.7L70.8,56.7z M70.8,56.7"/>
	<path class="st1" d="M97.5,80.6c0,1.6,1.3,2.8,2.8,2.8c1.5,0,2.8-1.3,2.8-2.8c0-1.6-1.3-2.8-2.8-2.8C98.8,77.8,97.5,79.1,97.5,80.6
		L97.5,80.6z M97.5,80.6"/>
</g>
</svg>
