<?xml version="1.0" encoding="utf-8"?>
<!-- Generator: Adobe Illustrator 22.0.1, SVG Export Plug-In . SVG Version: 6.00 Build 0)  -->
<svg version="1.1" id="Layer_1" xmlns="http://www.w3.org/2000/svg" xmlns:xlink="http://www.w3.org/1999/xlink" x="0px" y="0px"
	 viewBox="0 0 143 143" style="enable-background:new 0 0 143 143;" xml:space="preserve">
<style type="text/css">
	.st0{fill:#FFFFFF;}
	.st1{fill:#3FB76D;}
</style>
<g>
	
		<ellipse transform="matrix(0.7071 -0.7071 0.7071 0.7071 -29.6163 71.5001)" class="st0" cx="71.5" cy="71.5" rx="70.1" ry="70.1"/>
	<path class="st1" d="M71.5,2.8c37.9,0,68.7,30.8,68.7,68.7s-30.8,68.7-68.7,68.7S2.8,109.4,2.8,71.5S33.6,2.8,71.5,2.8 M71.5,0
		C32,0,0,32,0,71.5S32,143,71.5,143S143,111,143,71.5S111,0,71.5,0L71.5,0z"/>
</g>
<g>
	<path class="st1" d="M102.3,88c-0.4-0.2-0.9-0.1-1.3,0.3L88.2,101c-0.3,0.3-0.4,0.8-0.3,1.3c0.2,0.4,0.6,0.7,1.1,0.7h12.8
		c0.6,0,1.2-0.5,1.2-1.2V89C103,88.6,102.7,88.1,102.3,88z M100.7,100.7h-8.8l8.8-8.8L100.7,100.7L100.7,100.7z"/>
	<path class="st1" d="M110.8,69.1c-0.4-0.2-0.9-0.1-1.3,0.3l-3.5,3.5V49c0-0.6-0.5-1.2-1.2-1.2h-9l3.3-3.3c0,0,0,0,0,0l3.2-3.2
		c0.7-0.7,1-1.6,1-2.5c0-1-0.4-1.9-1-2.5l-3.6-3.6c-0.7-0.7-1.6-1-2.5-1s-1.9,0.4-2.5,1l-3.2,3.2l-3.8,3.8l-8.2,8.2H41.9V36.2
		c0-0.6-0.5-1.2-1.2-1.2c-5.1,0-9.2,4.1-9.2,9.2v49.9c0,0.1,0,0.2,0,0.3c0.2,2.2,1.1,4.2,2.7,5.7c1.7,1.6,3.9,2.5,6.2,2.5h35.9
		l-6.8,6.8c-0.3,0.3-0.4,0.8-0.3,1.3c0.2,0.4,0.6,0.7,1.1,0.7h40c0.6,0,1.2-0.5,1.2-1.2v-40C111.5,69.7,111.2,69.3,110.8,69.1z
		 M91.2,38.3l5.4,5.4l-2.2,2.2L89,40.5L91.2,38.3z M95.2,34.3c0.5-0.5,1.3-0.5,1.7,0l3.6,3.6c0.5,0.5,0.5,1.3,0,1.7l-2.3,2.3
		l-5.4-5.4L95.2,34.3z M73.2,109L85,97.2c0,0,0,0,0,0l0,0l0,0c0.5-0.5,0.5-1.2,0-1.7c-0.1-0.1-0.1-0.1-0.2-0.1
		c-0.5-0.3-1.1-0.3-1.5,0.1l-4.8,4.8H40.4c-3.6,0-6.4-2.8-6.5-6.3c0-0.2,0-0.4,0.1-0.7c0,0,0,0,0,0c0-0.1,0-0.2,0-0.3c0,0,0,0,0,0
		c0-0.1,0-0.2,0.1-0.3c0,0,0-0.1,0-0.1c0-0.1,0-0.2,0.1-0.2c0,0,0-0.1,0-0.1c0-0.1,0-0.1,0.1-0.2c0-0.1,0-0.1,0.1-0.2
		c0,0,0-0.1,0-0.1c0-0.1,0.1-0.2,0.1-0.2c0,0,0,0,0-0.1c0-0.1,0.1-0.2,0.1-0.3c0,0,0,0,0,0c0.9-1.9,2.7-3.3,4.8-3.8c0,0,0,0,0,0
		c0.1,0,0.2,0,0.3-0.1c0,0,0,0,0,0c0.1,0,0.2,0,0.3,0c0,0,0.1,0,0.1,0c0.1,0,0.2,0,0.3,0c0,0,0.1,0,0.1,0c0.1,0,0.2,0,0.3,0
		c0.6,0,1.2-0.5,1.2-1.2v-8.5c0-0.6-0.5-1.2-1.2-1.2c-0.6,0-1.2,0.5-1.2,1.2V85c-2,0.3-3.8,1.1-5.3,2.6c-0.2,0.1-0.3,0.3-0.4,0.5
		V44.3c0-3.4,2.5-6.2,5.7-6.8V49v23.9v0c0,0.6,0.5,1.2,1.2,1.2c0.6,0,1.2-0.5,1.2-1.2v0V50.2H76l-6.5,6.5c-0.5,0.5-0.5,1.2,0,1.7
		c0.5,0.5,1.2,0.5,1.7,0l8.5-8.5c0,0,0,0,0,0l7.7-7.7l5.4,5.4l-0.6,0.6c0,0,0,0,0,0L68.4,71.8L63,66.4l4.7-4.7
		c0.5-0.5,0.5-1.2,0-1.7c-0.5-0.5-1.2-0.5-1.7,0l-5.5,5.5c0,0-0.1,0.1-0.1,0.1c0,0,0,0,0,0c0,0,0,0,0,0.1c0,0,0,0,0,0c0,0,0,0,0,0.1
		c0,0,0,0,0,0c0,0,0,0,0,0.1c0,0,0,0,0,0L58,72.5L56.4,77c0,0.1,0,0.1,0,0.2h-3.9c-0.6,0-1.2,0.5-1.2,1.2s0.5,1.2,1.2,1.2H85
		c0.6,0,1.2-0.5,1.2-1.2s-0.5-1.2-1.2-1.2H61.7l7.2-2.5c0,0,0,0,0,0c0,0,0.1,0,0.1,0c0,0,0,0,0,0c0,0,0.1,0,0.1,0c0,0,0,0,0,0
		c0,0,0.1,0,0.1-0.1c0,0,0,0,0,0c0,0,0.1-0.1,0.1-0.1l24.2-24.2h10.2v25.1L86.8,92c-0.5,0.5-0.5,1.2,0,1.7c0,0,0.1,0.1,0.1,0.1
		c0.2,0.2,0.5,0.3,0.7,0.3c0.3,0,0.5-0.1,0.7-0.3c0,0,0.1-0.1,0.1-0.1l0,0c0,0,0,0,0,0L109.1,73v10.4H107c-0.6,0-1.2,0.5-1.2,1.2
		s0.5,1.2,1.2,1.2h2.2v3.5H107c-0.6,0-1.2,0.5-1.2,1.2c0,0.6,0.5,1.2,1.2,1.2h2.2v3.5H107c-0.6,0-1.2,0.5-1.2,1.2s0.5,1.2,1.2,1.2
		h2.2v3.5H107c-0.6,0-1.2,0.5-1.2,1.2c0,0.6,0.5,1.2,1.2,1.2h2.2v5.6H73.2z M62.9,74.2L60.7,72l1.2-3.4l4.4,4.4L62.9,74.2z"/>
</g>
</svg>
