<?xml version="1.0" encoding="utf-8"?>
<!-- Generator: Adobe Illustrator 22.0.1, SVG Export Plug-In . SVG Version: 6.00 Build 0)  -->
<svg version="1.1" id="Layer_1" xmlns="http://www.w3.org/2000/svg" xmlns:xlink="http://www.w3.org/1999/xlink" x="0px" y="0px"
	 viewBox="0 0 30 30" style="enable-background:new 0 0 30 30;" xml:space="preserve">
<style type="text/css">
	.st0{fill:#FFFFFF;}
</style>
<g>
	<path class="st0" d="M22.7,7.9c-0.5,2.8-2.1,10.8-2.8,14.1c-0.1,0.6-0.9,0.9-1.4,0.5c-1.1-0.8-2.8-2-4.2-3.1L12,21.4
		c-0.1,0.1-0.3,0.1-0.4,0.1l0,0c0,0,0,0,0,0c-0.2,0-0.3-0.1-0.4-0.3l-1.6-4.7l-4.3-1.3c-0.5-0.2-0.5-0.9,0-1.1
		C9,12.5,18.9,8.5,22,7.3C22.4,7.2,22.8,7.5,22.7,7.9 M30,15c0-8.3-6.7-15-15-15S0,6.7,0,15c0,8.3,6.7,15,15,15S30,23.3,30,15"/>
</g>
</svg>
