<!DOCTYPE svg PUBLIC "-//W3C//DTD SVG 20010904//EN" "http://www.w3.org/TR/2001/REC-SVG-20010904/DTD/svg10.dtd">
<svg version="1.0" xmlns="http://www.w3.org/2000/svg" width="174px" height="187px" viewBox="0 0 1740 1870" preserveAspectRatio="xMidYMid meet">
<g id="layer101" fill="#5cc35a" stroke="none">
 <path d="M0 935 l0 -935 870 0 870 0 0 935 0 935 -870 0 -870 0 0 -935z"/>
 </g>
<g id="layer102" fill="#6cc46b" stroke="none">
 <path d="M0 935 l0 -935 870 0 870 0 0 935 0 935 -870 0 -870 0 0 -935z m1022 233 c44 -19 86 -53 77 -63 -3 -2 -34 10 -69 27 -152 72 -314 8 -366 -145 -11 -34 -14 -82 -12 -206 2 -88 0 -161 -4 -161 -20 0 -28 52 -28 184 0 123 3 154 21 201 60 160 223 230 381 163z m125 -124 c103 -51 170 -165 160 -275 -5 -56 -42 -144 -71 -168 -23 -20 -20 0 11 61 36 71 43 159 16 220 -45 101 -136 161 -236 156 -29 -1 -105 -1 -171 0 -104 2 -117 4 -106 17 10 12 43 15 179 15 159 0 170 -1 218 -26z m-576 -123 c-62 -87 -41 -247 43 -318 64 -54 97 -61 280 -63 94 0 171 -2 172 -3 2 -1 0 -8 -4 -14 -10 -16 -303 -19 -358 -4 -80 22 -172 114 -191 191 -3 14 -8 29 -11 35 -10 17 -13 77 -4 89 5 6 16 32 26 58 9 26 27 59 39 75 22 27 22 27 25 5 2 -12 -6 -35 -17 -51z m619 -138 c0 -178 -12 -228 -75 -299 -84 -97 -217 -125 -329 -70 -60 29 -90 56 -63 56 9 0 35 -10 58 -22 58 -30 172 -34 232 -9 45 19 94 69 124 124 15 26 19 63 21 210 3 152 6 176 18 166 11 -9 14 -43 14 -156z"/>
 </g>
<g id="layer103" fill="#81cb80" stroke="none">
 <path d="M0 935 l0 -935 870 0 870 0 0 935 0 935 -870 0 -870 0 0 -935z m737 473 c-3 -7 -5 -2 -5 12 0 14 2 19 5 13 2 -7 2 -19 0 -25z m380 -65 c-4 -3 -7 0 -7 7 0 7 3 10 7 7 3 -4 3 -10 0 -14z m-142 -154 c44 -12 135 -66 135 -80 0 -16 -27 -10 -79 18 -69 35 -158 40 -221 11 -56 -26 -127 -100 -140 -147 -5 -20 -10 -111 -10 -203 0 -93 -4 -168 -9 -168 -28 0 -33 33 -29 202 4 201 11 223 99 302 75 67 163 90 254 65z m158 -132 c61 -27 111 -71 143 -129 26 -47 29 -63 29 -138 0 -78 -3 -90 -35 -147 -19 -35 -38 -63 -42 -63 -16 0 -7 42 19 93 64 126 12 282 -116 344 -30 14 -66 17 -218 18 -101 0 -183 2 -183 4 0 3 8 13 17 24 17 18 30 19 183 15 126 -3 174 -8 203 -21z m-539 -84 c-4 -16 -18 -48 -31 -72 -18 -34 -23 -60 -23 -112 0 -37 5 -71 10 -74 6 -3 10 -14 10 -24 0 -26 67 -99 114 -123 48 -25 64 -27 260 -27 148 -1 149 -1 131 -21 -17 -18 -31 -20 -165 -20 -170 0 -224 12 -292 65 -42 33 -80 92 -104 160 -12 33 -15 107 -6 119 5 6 12 22 15 36 8 33 64 120 77 120 6 0 8 -11 4 -27z m586 -28 c8 -10 11 -62 8 -187 l-3 -173 -32 -60 c-26 -48 -44 -67 -85 -92 -120 -71 -233 -68 -338 9 -58 43 -30 51 43 13 105 -54 231 -40 307 36 66 66 75 103 75 297 0 94 3 172 6 172 4 0 12 -7 19 -15z"/>
 </g>
<g id="layer104" fill="#96d394" stroke="none">
 <path d="M0 935 l0 -935 870 0 870 0 0 935 0 935 -870 0 -870 0 0 -935z m689 535 c0 -10 -3 -8 -9 5 -12 27 -12 43 0 25 5 -8 9 -22 9 -30z m291 25 c19 -23 8 -26 -20 -5 -19 15 -21 20 -9 20 9 0 22 -7 29 -15z m-210 1 c0 -3 -5 -8 -12 -12 -7 -4 -8 -3 -4 4 7 12 16 16 16 8z m-27 -84 c4 -18 3 -31 -2 -28 -10 7 -20 53 -13 61 7 7 8 5 15 -33z m337 23 c0 -8 -2 -15 -4 -15 -2 0 -6 7 -10 15 -3 8 -1 15 4 15 6 0 10 -7 10 -15z m90 10 c0 -10 -43 -95 -50 -100 -4 -3 -11 2 -14 11 -3 8 -2 13 3 9 10 -6 41 49 41 72 0 7 5 13 10 13 6 0 10 -2 10 -5z m-180 -69 c0 -2 -8 -10 -17 -17 -16 -13 -17 -12 -4 4 13 16 21 21 21 13z m-225 -16 c3 -5 4 -10 1 -10 -3 0 -8 5 -11 10 -3 6 -4 10 -1 10 3 0 8 -4 11 -10z m62 -27 c-4 -3 -10 -3 -14 0 -3 4 0 7 7 7 7 0 10 -3 7 -7z m189 -156 c56 -24 104 -59 104 -75 0 -14 -42 -2 -100 28 -97 50 -235 22 -298 -59 -58 -75 -61 -91 -62 -285 0 -178 0 -179 -20 -161 -18 17 -20 31 -20 180 0 176 9 220 56 283 30 38 117 98 155 105 63 12 136 5 185 -16z m149 -131 c56 -31 135 -125 135 -162 0 -12 4 -25 8 -28 4 -2 5 -43 0 -90 -6 -74 -11 -91 -43 -140 -67 -100 -75 -75 -17 51 28 62 32 149 9 206 -23 55 -85 111 -147 134 -47 17 -77 20 -217 19 -90 0 -163 1 -163 3 0 3 8 13 18 24 16 18 28 19 192 15 167 -5 177 -6 225 -32z m-570 -68 c-4 -18 -18 -57 -31 -87 -32 -71 -31 -133 2 -205 54 -118 124 -146 357 -143 86 1 157 0 157 -2 0 -3 -7 -13 -17 -23 -14 -16 -34 -18 -169 -18 -168 0 -220 12 -290 65 -88 67 -133 208 -97 304 19 52 74 141 86 141 5 0 6 -15 2 -32z m589 -42 c12 -25 16 -63 16 -142 0 -228 -32 -304 -165 -385 -35 -21 -52 -24 -130 -23 -86 0 -93 2 -146 36 -31 20 -60 41 -63 47 -12 20 32 12 91 -16 110 -51 230 -30 303 53 55 64 60 85 60 284 0 99 4 180 9 180 5 0 16 -15 25 -34z"/>
 </g>
<g id="layer105" fill="#dff7e4" stroke="none">
 <path d="M0 935 l0 -935 870 0 870 0 0 935 0 935 -870 0 -870 0 0 -935z m685 561 c18 -27 18 -157 -1 -163 -7 -2 -9 17 -6 56 2 33 1 72 -2 87 -6 23 -11 26 -41 22 -19 -2 -35 -1 -35 2 0 30 65 27 85 -4z m182 9 c2 -6 -17 -10 -44 -10 -45 0 -49 -2 -67 -37 -17 -30 -18 -40 -8 -62 16 -36 64 -59 97 -46 20 8 26 7 23 -2 -6 -18 -54 -22 -88 -8 -66 27 -70 137 -6 169 25 12 88 10 93 -4z m118 -16 c14 -14 20 -33 20 -65 0 -38 -5 -50 -29 -70 -16 -14 -38 -24 -50 -22 -19 3 -21 10 -24 82 -2 44 0 86 3 94 7 19 53 8 80 -19z m75 -9 c11 -27 17 -30 55 -30 38 0 44 3 55 30 7 17 19 30 26 30 10 0 0 -28 -31 -90 -25 -49 -47 -90 -50 -90 -6 0 -85 157 -85 170 0 21 18 9 30 -20z m-65 -291 c41 -11 135 -76 135 -92 0 -14 -57 0 -117 29 -120 59 -261 11 -326 -110 -20 -38 -22 -55 -22 -228 0 -104 -2 -188 -4 -188 -3 0 -15 10 -28 22 -22 21 -23 28 -23 173 0 203 11 239 95 322 36 35 77 66 96 72 47 13 146 13 194 0z m162 -136 c169 -91 215 -304 97 -447 -45 -53 -54 -53 -39 2 7 26 21 62 31 81 42 83 25 187 -45 264 -62 69 -90 77 -298 77 -101 0 -183 3 -183 7 0 3 8 15 17 25 16 18 31 19 198 16 163 -3 184 -5 222 -25z m-554 -65 c-3 -18 -17 -55 -32 -83 -63 -124 -11 -279 114 -336 34 -16 67 -19 223 -19 100 0 182 -3 182 -7 0 -3 -7 -15 -17 -25 -14 -16 -34 -18 -187 -18 -159 0 -174 2 -221 24 -59 28 -128 96 -150 149 -24 57 -28 141 -11 202 14 47 80 145 98 145 4 0 5 -15 1 -32z m586 -42 c9 -11 12 -60 9 -188 -4 -196 -11 -222 -90 -297 -57 -56 -101 -74 -189 -79 -61 -4 -85 0 -122 16 -53 24 -117 70 -117 84 0 16 64 0 112 -27 34 -19 57 -25 108 -25 103 0 174 42 222 131 22 42 23 54 23 231 0 167 2 185 16 178 9 -5 21 -16 28 -24z"/>
 <path d="M920 1425 c0 -58 3 -75 14 -75 19 0 56 48 56 72 0 22 -18 60 -34 70 -29 20 -36 8 -36 -67z"/>
 <path d="M1090 1423 c1 -5 7 -19 14 -32 l14 -25 16 32 17 32 -31 0 c-16 0 -30 -3 -30 -7z"/>
 </g>
<g id="layer106" fill="#fffffe" stroke="none">
 <path d="M0 935 l0 -935 870 0 870 0 0 935 0 935 -870 0 -870 0 0 -935z m680 586 c16 -3 31 -67 28 -123 l-3 -63 -37 -1 c-44 -1 -49 8 -12 25 20 9 25 17 20 34 -3 12 -6 42 -6 66 l0 43 -35 -4 c-32 -4 -46 8 -30 24 5 5 53 4 75 -1z m172 -1 c19 0 28 -4 25 -12 -2 -7 -12 -12 -22 -10 -42 8 -85 -9 -101 -39 -14 -28 -14 -34 1 -65 10 -21 23 -34 35 -34 10 0 22 -4 25 -10 4 -6 13 -5 25 2 26 17 40 0 15 -18 -48 -35 -125 16 -131 86 -3 38 0 46 33 77 21 18 44 31 51 28 8 -3 27 -5 44 -5z m135 -23 c48 -46 39 -120 -20 -151 -58 -32 -67 -20 -67 82 0 49 3 92 7 96 12 11 54 -3 80 -27z m60 21 c6 -7 13 -25 17 -40 6 -25 11 -28 51 -28 42 0 46 2 51 30 8 35 30 58 45 43 9 -9 -69 -185 -89 -197 -9 -5 -102 171 -102 193 0 15 15 14 27 -1z m-72 -320 c4 -4 13 -4 20 -2 7 3 16 1 20 -5 3 -6 14 -11 24 -11 27 0 119 -89 103 -99 -10 -6 -4 -12 19 -22 38 -15 99 -66 99 -82 0 -6 8 -20 18 -31 31 -35 56 -137 47 -193 -4 -26 -10 -52 -15 -58 -4 -5 -10 -21 -13 -35 -8 -35 -74 -110 -96 -110 -10 0 -23 -11 -29 -24 -21 -46 -72 -93 -134 -123 -55 -26 -73 -29 -143 -28 -68 2 -89 7 -130 30 -65 35 -97 66 -92 86 3 11 -5 22 -22 30 -46 23 -91 60 -91 75 0 7 -4 14 -9 14 -5 0 -20 21 -32 48 -45 90 -31 255 24 301 10 7 17 20 17 27 0 18 46 48 60 39 6 -4 16 8 24 27 19 43 54 88 71 88 7 0 15 6 18 13 3 7 24 19 48 27 24 7 47 16 51 19 10 8 135 7 143 -1z"/>
 <path d="M927 1483 c-11 -11 -8 -111 4 -118 18 -12 49 26 49 61 0 42 -33 78 -53 57z"/>
 <path d="M1090 1423 c1 -5 6 -18 13 -30 l13 -23 11 30 c11 28 10 30 -13 30 -13 0 -24 -3 -24 -7z"/>
 <path d="M850 1141 c-50 -15 -90 -36 -87 -46 5 -13 277 -19 289 -7 14 14 -79 55 -131 58 -25 1 -57 -1 -71 -5z"/>
 <path d="M689 1001 c-7 -14 -12 -31 -10 -38 1 -6 -3 -14 -9 -18 -13 -8 -14 -302 0 -310 6 -3 7 -17 4 -29 -10 -41 36 -50 249 -52 l189 -1 9 26 c5 14 14 34 19 43 14 25 13 311 -2 326 -8 8 -8 15 1 25 9 12 5 19 -23 35 -32 19 -50 20 -224 20 l-190 -1 -13 -26z"/>
 <path d="M581 903 c-12 -27 -26 -56 -32 -65 -15 -30 -10 -70 18 -130 14 -32 29 -58 32 -58 3 0 7 68 7 150 1 83 1 150 0 150 -2 0 -13 -21 -25 -47z"/>
 <path d="M1207 923 c-10 -10 -8 -261 2 -267 4 -3 16 11 26 32 10 20 22 45 26 54 12 23 11 85 0 92 -5 3 -12 18 -16 33 -8 33 -30 65 -38 56z"/>
 <path d="M766 491 c-3 -5 13 -20 37 -33 33 -19 56 -24 103 -23 61 2 146 32 141 50 -5 13 -273 19 -281 6z"/>
 </g>

</svg>