<?xml version="1.0" encoding="utf-8"?>
<!-- Generator: Adobe Illustrator 22.0.1, SVG Export Plug-In . SVG Version: 6.00 Build 0)  -->
<svg version="1.1" id="Layer_1" xmlns="http://www.w3.org/2000/svg" xmlns:xlink="http://www.w3.org/1999/xlink" x="0px" y="0px"
	 viewBox="0 0 52 52" style="enable-background:new 0 0 52 52;" xml:space="preserve">
<style type="text/css">
	.st0{fill:#24B45F;}
</style>
<g>
	<path class="st0" d="M48.3,52c-0.9,0-1.9-0.4-2.6-1.1L1.1,6.2c-1.4-1.4-1.4-3.7,0-5.2c1.4-1.4,3.7-1.4,5.2,0l44.7,44.7
		c1.4,1.4,1.4,3.7,0,5.2C50.2,51.6,49.3,52,48.3,52z"/>
</g>
<g>
	<path class="st0" d="M3.7,52c-0.9,0-1.9-0.4-2.6-1.1c-1.4-1.4-1.4-3.7,0-5.2L45.8,1.1c1.4-1.4,3.7-1.4,5.2,0c1.4,1.4,1.4,3.7,0,5.2
		L6.2,50.9C5.5,51.6,4.6,52,3.7,52z"/>
</g>
</svg>
