<?xml version="1.0" encoding="utf-8"?>
<!-- Generator: Adobe Illustrator 22.0.1, SVG Export Plug-In . SVG Version: 6.00 Build 0)  -->
<svg version="1.1" id="Layer_1" xmlns="http://www.w3.org/2000/svg" xmlns:xlink="http://www.w3.org/1999/xlink" x="0px" y="0px"
	 viewBox="0 0 64 52" style="enable-background:new 0 0 64 52;" xml:space="preserve">
<style type="text/css">
	.st0{fill:#FFFFFF;}
</style>
<g>
	<path class="st0" d="M60.2,8.5H3.8C1.7,8.5,0,6.6,0,4.3S1.7,0,3.8,0h56.5C62.3,0,64,1.9,64,4.3S62.3,8.5,60.2,8.5z"/>
</g>
<g>
	<path class="st0" d="M60.2,30.3H3.8C1.7,30.3,0,28.3,0,26s1.7-4.3,3.8-4.3h56.5c2.1,0,3.8,1.9,3.8,4.3S62.3,30.3,60.2,30.3z"/>
</g>
<g>
	<path class="st0" d="M60.2,52H3.8C1.7,52,0,50.1,0,47.7s1.7-4.3,3.8-4.3h56.5c2.1,0,3.8,1.9,3.8,4.3S62.3,52,60.2,52z"/>
</g>
</svg>
