<?xml version="1.0" encoding="utf-8"?>
<!-- Generator: Adobe Illustrator 22.0.1, SVG Export Plug-In . SVG Version: 6.00 Build 0)  -->
<svg version="1.1" id="Layer_1" xmlns="http://www.w3.org/2000/svg" xmlns:xlink="http://www.w3.org/1999/xlink" x="0px" y="0px"
	 viewBox="0 0 143 143" style="enable-background:new 0 0 143 143;" xml:space="preserve">
<style type="text/css">
	.st0{fill:#FFFFFF;}
	.st1{fill:#3FB76D;}
</style>
<g>
	
		<ellipse transform="matrix(0.7071 -0.7071 0.7071 0.7071 -29.6163 71.5001)" class="st0" cx="71.5" cy="71.5" rx="70.1" ry="70.1"/>
	<path class="st1" d="M71.5,2.8c37.9,0,68.7,30.8,68.7,68.7s-30.8,68.7-68.7,68.7S2.8,109.4,2.8,71.5S33.6,2.8,71.5,2.8 M71.5,0
		C32,0,0,32,0,71.5S32,143,71.5,143S143,111,143,71.5S111,0,71.5,0L71.5,0z"/>
</g>
<g>
	<g>
		<path class="st1" d="M95.5,121.5l-2.2-11.1c-0.2-0.8-0.8-1.3-1.6-1.3h-2.3c-0.9-1.8-2.9-6.4-3.7-12.8c-1.4-10.9,1.1-21.6,7.4-31.5
			c0.4-0.7,0.3-1.5-0.2-2.1c-8.3-8.3-13.3-19.3-14.1-31c0.7-1.2,1-2.6,1-3.9c0-4.6-3.7-8.3-8.3-8.3s-8.3,3.7-8.3,8.3
			c0,1.4,0.3,2.7,1,3.9c-0.8,11.7-5.8,22.7-14.1,31c-0.6,0.6-0.6,1.4-0.2,2.1c6.4,10,8.9,20.6,7.4,31.5c-0.8,6.3-2.8,11-3.7,12.8
			h-2.3c-0.8,0-1.5,0.6-1.6,1.3l-2.2,11.1c-0.1,0.5,0,1,0.3,1.4c0.3,0.4,0.8,0.6,1.3,0.6h44.8c0.5,0,1-0.2,1.3-0.6
			C95.5,122.5,95.6,122,95.5,121.5L95.5,121.5z M71.5,62.3c0.9,0,1.7,0.7,1.7,1.7c0,0.9-0.7,1.7-1.7,1.7s-1.7-0.7-1.7-1.7
			C69.8,63,70.6,62.3,71.5,62.3L71.5,62.3z M59.8,101.4l11.7,0c0.9,0,1.7-0.7,1.7-1.7c0-0.9-0.7-1.7-1.7-1.7l-11.1,0
			c0.1-0.4,0.1-0.7,0.2-1.1c1.1-7.9,0.6-19.9-7.2-32.8c8.5-8.9,13.5-20.5,14.2-32.7c0-0.3-0.1-0.7-0.3-1c-0.5-0.8-0.8-1.7-0.8-2.7
			c0-2.2,1.4-4,3.3-4.7v36.1c-1.9,0.7-3.3,2.5-3.3,4.7c0,2.7,2.2,5,5,5s5-2.2,5-5c0-2.2-1.4-4-3.3-4.7V23.1c1.9,0.7,3.3,2.5,3.3,4.7
			c0,0.9-0.3,1.9-0.8,2.7c-0.2,0.3-0.3,0.6-0.3,1c0.7,12.3,5.7,23.8,14.2,32.7c-7.8,12.9-8.3,24.9-7.2,32.8c0,0.4,0.1,0.7,0.2,1.1
			h-4.5c-0.9,0-1.7,0.7-1.7,1.7c0,0.9,0.7,1.7,1.7,1.7h5.1c0.8,3.3,1.7,6,2.5,7.7H57.3C58,107.4,59,104.7,59.8,101.4L59.8,101.4z
			 M51.1,120.2l1.5-7.7h37.7l1.5,7.7H51.1z M51.1,120.2"/>
	</g>
	<path class="st1" d="M77.2,94.7c0.9,0,1.6-0.8,1.6-1.7c-0.4-9.5,1.7-18.7,6.3-27.4c0.4-0.8,0.1-1.8-0.7-2.2
		c-0.8-0.4-1.8-0.1-2.2,0.7c-4.9,9.3-7.1,19.1-6.6,29.1C75.5,94,76.2,94.7,77.2,94.7C77.1,94.7,77.1,94.7,77.2,94.7L77.2,94.7z
		 M77.2,94.7"/>
</g>
</svg>
