<?xml version="1.0" encoding="utf-8"?>
<!-- Generator: Adobe Illustrator 22.0.1, SVG Export Plug-In . SVG Version: 6.00 Build 0)  -->
<svg version="1.1" id="Layer_1" xmlns="http://www.w3.org/2000/svg" xmlns:xlink="http://www.w3.org/1999/xlink" x="0px" y="0px"
	 viewBox="0 0 143 143" style="enable-background:new 0 0 143 143;" xml:space="preserve">
<style type="text/css">
	.st0{fill:#FFFFFF;}
	.st1{fill:#3FB76D;}
</style>
<g>
	<ellipse class="st0" cx="71.5" cy="71.5" rx="70.1" ry="70.1"/>
	<path class="st1" d="M71.5,2.8c37.9,0,68.7,30.8,68.7,68.7s-30.8,68.7-68.7,68.7S2.8,109.4,2.8,71.5S33.6,2.8,71.5,2.8 M71.5,0
		C32,0,0,32,0,71.5S32,143,71.5,143S143,111,143,71.5S111,0,71.5,0L71.5,0z"/>
</g>
<g>
	<path class="st1" d="M109.3,83H107V51.9c0-0.7-0.6-1.3-1.3-1.3c-0.7,0-1.3,0.6-1.3,1.3V83H38.6V41.2h18.7v1.7c0,1.2,1,2.2,2.2,2.2
		h6.6c0.7,0,1.3-0.6,1.3-1.3c0-0.7-0.6-1.3-1.3-1.3h-6.2v-4.8h23.2v4.8H71.8c-0.7,0-1.3,0.6-1.3,1.3c0,0.7,0.6,1.3,1.3,1.3h11.7
		c1.2,0,2.2-1,2.2-2.2v-1.7h18.7v5.2c0,0.7,0.6,1.3,1.3,1.3c0.7,0,1.3-0.6,1.3-1.3v-5.6c0-1.2-1-2.2-2.2-2.2H85.7v-1.4
		c0-1.2-1-2.2-2.2-2.2h-6.2v-3.8c0-1.2-1-2.2-2.2-2.2h-7.3c-1.2,0-2.2,1-2.2,2.2v3.8h-6.2c-1.2,0-2.2,1-2.2,2.2v1.4H38.2
		c-1.2,0-2.2,1-2.2,2.2V83h-2.3c-1.2,0-2.2,1-2.2,2.2v4.8c0,1.2,1,2.2,2.2,2.2h17.2l-9.2,19.1c-0.3,0.6-0.3,1.3,0.1,1.8
		c0.3,0.5,0.9,0.8,1.6,0.8h5c1,0,2-0.6,2.4-1.5l3.1-6.4h12.8v5.7c0,1.2,1,2.2,2.2,2.2h5.4c1.2,0,2.2-1,2.2-2.2V106h3.4
		c0.7,0,1.3-0.6,1.3-1.3s-0.6-1.3-1.3-1.3H55l1.2-2.5h30.6l1.2,2.5h-3c-0.7,0-1.3,0.6-1.3,1.3s0.6,1.3,1.3,1.3h4.2l3.1,6.4
		c0.4,0.9,1.4,1.5,2.4,1.5h5c0.7,0,1.3-0.3,1.6-0.8c0.3-0.5,0.4-1.2,0.1-1.8l-9.2-19.1h3.1c0.7,0,1.3-0.6,1.3-1.3s-0.6-1.3-1.3-1.3
		H34.1v-0.7h20.5c0.7,0,1.3-0.6,1.3-1.3s-0.6-1.3-1.3-1.3H34.1v-0.7h74.8v4h-8.5c-0.7,0-1.3,0.6-1.3,1.3c0,0.7,0.6,1.3,1.3,1.3h8.9
		c1.2,0,2.2-1,2.2-2.2v-4.8C111.5,84,110.5,83,109.3,83z M68.3,31.7h6.4v3.4h-1.9v-1c0-0.7-0.6-1.3-1.3-1.3s-1.3,0.6-1.3,1.3v1h-1.9
		V31.7z M69.2,106h4.6v5.3h-4.6V106L69.2,106z M89.2,92.1l9.2,19.2h-3.7c0,0-0.1,0-0.1-0.1l-9.2-19.1L89.2,92.1L89.2,92.1z
		 M76.4,92.1h6.1l3,6.3h-9.2V92.1z M69.2,92.1h1v4c0,0.7,0.6,1.3,1.3,1.3s1.3-0.6,1.3-1.3v-4h1v6.3h-4.6L69.2,92.1L69.2,92.1z
		 M66.6,92.1v6.3h-9.2l3-6.3H66.6z M57.6,92.1l-9.2,19.1c0,0-0.1,0.1-0.1,0.1h-3.7l9.2-19.2H57.6z"/>
	<path class="st1" d="M61.9,39.1c-0.2,0.2-0.4,0.6-0.4,0.9c0,0.3,0.1,0.7,0.4,0.9c0.2,0.2,0.6,0.4,0.9,0.4c0.3,0,0.7-0.1,0.9-0.4
		c0.2-0.2,0.4-0.6,0.4-0.9c0-0.3-0.1-0.7-0.4-0.9c-0.2-0.2-0.6-0.4-0.9-0.4C62.5,38.7,62.2,38.9,61.9,39.1z"/>
	<path class="st1" d="M81.1,41c0.2-0.2,0.4-0.6,0.4-0.9c0-0.3-0.1-0.7-0.4-0.9c-0.2-0.2-0.6-0.4-0.9-0.4c-0.3,0-0.7,0.1-0.9,0.4
		c-0.2,0.2-0.4,0.6-0.4,0.9c0,0.3,0.1,0.7,0.4,0.9c0.2,0.2,0.6,0.4,0.9,0.4C80.5,41.3,80.8,41.2,81.1,41z"/>
</g>
</svg>
