<?xml version="1.0" encoding="utf-8"?>
<!-- Generator: Adobe Illustrator 22.0.1, SVG Export Plug-In . SVG Version: 6.00 Build 0)  -->
<svg version="1.1" id="Layer_1" xmlns="http://www.w3.org/2000/svg" xmlns:xlink="http://www.w3.org/1999/xlink" x="0px" y="0px"
	 viewBox="0 0 30 30" style="enable-background:new 0 0 30 30;" xml:space="preserve">
<style type="text/css">
	.st0{fill:#FFFFFF;}
</style>
<g>
	<path class="st0" d="M13.4,16.3c0-0.7-0.6-1.4-1.4-1.4c-0.8,0-1.4,0.6-1.4,1.4c0,0.7,0.6,1.4,1.4,1.4
		C12.8,17.7,13.4,17.1,13.4,16.3 M17.6,19.3c-2.9,1.9-5.2,0.1-5.3,0c-0.2-0.2-0.5-0.1-0.7,0.1c-0.2,0.2-0.1,0.5,0.1,0.7
		c0,0,1.3,1.1,3.3,1.1c1,0,2.1-0.3,3.2-1c0.2-0.2,0.3-0.5,0.1-0.7C18.2,19.2,17.9,19.2,17.6,19.3 M19.2,16.3c0-0.7-0.6-1.4-1.4-1.4
		c-0.8,0-1.4,0.6-1.4,1.4c0,0.7,0.6,1.4,1.4,1.4C18.6,17.7,19.2,17.1,19.2,16.3 M25.1,15.2c0,1.1-0.5,2-1.4,2.6
		c-0.3,3.2-4.1,5.7-8.7,5.7c-4.5,0-8.3-2.5-8.6-5.6c-0.9-0.5-1.5-1.5-1.5-2.6c0-1.7,1.3-3,2.9-3c0.6,0,1.1,0.2,1.6,0.5
		c0,0-0.1,0-0.1,0.1c1.4-0.8,3.1-1.4,5-1.5l1.5-4.4l3.3,0.8c0.4-0.7,1.1-1.1,1.9-1.1c1.3,0,2.3,1,2.3,2.3c0,1.3-1,2.3-2.3,2.3
		c-1.3,0-2.3-1-2.3-2.3c0-0.1,0-0.1,0-0.2l-2.3-0.5l-1.1,3.2c1.9,0.1,3.7,0.6,5.1,1.4c0.5-0.3,1-0.5,1.5-0.5
		C23.7,12.2,25.1,13.5,25.1,15.2 M30,15c0-8.3-6.7-15-15-15S0,6.7,0,15c0,8.3,6.7,15,15,15S30,23.3,30,15"/>
</g>
</svg>
