<?xml version="1.0" encoding="utf-8"?>
<!-- Generator: Adobe Illustrator 22.0.1, SVG Export Plug-In . SVG Version: 6.00 Build 0)  -->
<svg version="1.1" id="Layer_1" xmlns="http://www.w3.org/2000/svg" xmlns:xlink="http://www.w3.org/1999/xlink" x="0px" y="0px"
	 viewBox="0 0 30 30" style="enable-background:new 0 0 30 30;" xml:space="preserve">
<style type="text/css">
	.st0{fill:#FFFFFF;}
</style>
<g>
	<path class="st0" d="M24.2,8l-1.5,1.4c-0.1,0.1-0.2,0.3-0.2,0.4v10.4c0,0.2,0,0.3,0.2,0.4l1.4,1.4v0.3H17V22l1.5-1.4
		c0.1-0.1,0.1-0.2,0.1-0.4v-8.4l-4.1,10.5h-0.6L9.1,11.8v7c0,0.3,0.1,0.6,0.3,0.8l1.9,2.3v0.3H5.8V22l1.9-2.3
		C7.9,19.4,8,19.1,8,18.8v-8.1c0-0.2-0.1-0.4-0.2-0.6L6,8V7.7h5.3l4.1,9l3.6-9h5.1V8z M30,15c0-8.3-6.7-15-15-15S0,6.7,0,15
		c0,8.3,6.7,15,15,15S30,23.3,30,15"/>
</g>
</svg>
