<?xml version="1.0" encoding="utf-8"?>
<!-- Generator: Adobe Illustrator 22.0.1, SVG Export Plug-In . SVG Version: 6.00 Build 0)  -->
<svg version="1.1" id="Layer_1" xmlns="http://www.w3.org/2000/svg" xmlns:xlink="http://www.w3.org/1999/xlink" x="0px" y="0px"
	 viewBox="0 0 30 30" style="enable-background:new 0 0 30 30;" xml:space="preserve">
<style type="text/css">
	.st0{fill:#FFFFFF;}
</style>
<g>
	<path class="st0" d="M22.6,9.7c0.8-0.1,1.6-0.3,2.3-0.6c-0.5,0.8-1.2,1.5-2,2c0,0.2,0,0.3,0,0.5c0,0.8-0.1,1.6-0.3,2.3
		c-1,4.4-4.9,8.7-11.3,8.7c-2.3,0-4.4-0.6-6.2-1.8c0.3,0,0.6,0.1,1,0.1c1.9,0,3.6-0.6,5-1.7c-1.8,0-3.3-1.2-3.8-2.7
		c0.2,0,0.5,0.1,0.8,0.1c0.4,0,0.7,0,1.1-0.1c-1.4-0.3-2.5-1.2-3-2.4c-0.2-0.4-0.3-0.9-0.3-1.4v0c0.5,0.3,1.2,0.5,1.8,0.5
		c-1.1-0.7-1.8-1.9-1.8-3.2c0-0.7,0.2-1.4,0.5-2c2,2.4,5,3.9,8.4,4.1c-0.1-0.3-0.1-0.6-0.1-0.9c0-2.2,1.8-3.9,4.1-3.9
		c1.2,0,2.2,0.5,3,1.2c0.9-0.2,1.8-0.5,2.6-0.9C24,8.5,23.4,9.2,22.6,9.7 M30,15c0-8.3-6.7-15-15-15S0,6.7,0,15c0,8.3,6.7,15,15,15
		S30,23.3,30,15"/>
</g>
</svg>
