<?xml version="1.0" encoding="utf-8"?>
<!-- Generator: Adobe Illustrator 22.0.1, SVG Export Plug-In . SVG Version: 6.00 Build 0)  -->
<svg version="1.1" id="Layer_1" xmlns="http://www.w3.org/2000/svg" xmlns:xlink="http://www.w3.org/1999/xlink" x="0px" y="0px"
	 viewBox="0 0 143 143" style="enable-background:new 0 0 143 143;" xml:space="preserve">
<style type="text/css">
	.st0{fill:#FFFFFF;}
	.st1{fill:#3FB76D;}
</style>
<g>
	
		<ellipse transform="matrix(0.7071 -0.7071 0.7071 0.7071 -29.6163 71.5001)" class="st0" cx="71.5" cy="71.5" rx="70.1" ry="70.1"/>
	<path class="st1" d="M71.5,2.8c37.9,0,68.7,30.8,68.7,68.7s-30.8,68.7-68.7,68.7S2.8,109.4,2.8,71.5S33.6,2.8,71.5,2.8 M71.5,0
		C32,0,0,32,0,71.5S32,143,71.5,143S143,111,143,71.5S111,0,71.5,0L71.5,0z"/>
</g>
<g>
	<g>
		<path class="st1" d="M108,49.8H97.9c-0.6,0-1.2,0.5-1.2,1.2c0,0.6,0.5,1.2,1.2,1.2H108c0.6,0,1.2,0.5,1.2,1.2V104
			c0,0.6-0.5,1.2-1.2,1.2H35c-0.6,0-1.2-0.5-1.2-1.2v-4.7l0,0h26.9c0.6,0,1.2-0.5,1.2-1.2c0-0.6-0.5-1.2-1.2-1.2H49.3V60.3h51.2V97
			H65.4c-0.6,0-1.2,0.5-1.2,1.2c0,0.6,0.5,1.2,1.2,1.2h36.3c0.6,0,1.2-0.5,1.2-1.2v-39c0-0.6-0.5-1.2-1.2-1.2H33.8l0,0v-4.7
			c0-0.6,0.5-1.2,1.2-1.2h58.2c0.6,0,1.2-0.5,1.2-1.2c0-0.6-0.5-1.2-1.2-1.2H35c-1.9,0-3.5,1.6-3.5,3.5v5.9v39v5.9
			c0,1.9,1.6,3.5,3.5,3.5h73c1.9,0,3.5-1.6,3.5-3.5V53.3C111.5,51.4,109.9,49.8,108,49.8z M47,60.3V97H33.8V60.3H47z"/>
	</g>
	<g>
		<path class="st1" d="M40.4,83.4c2.6,0,4.7-2.1,4.7-4.7c0-2.6-2.1-4.7-4.7-4.7c-2.6,0-4.7,2.1-4.7,4.7
			C35.7,81.3,37.8,83.4,40.4,83.4z M40.4,76.3c1.3,0,2.4,1.1,2.4,2.4c0,1.3-1.1,2.4-2.4,2.4C39.1,81,38,80,38,78.6
			C38,77.3,39.1,76.3,40.4,76.3z"/>
	</g>
	<g>
		<path class="st1" d="M38,71.5h4.8c0.6,0,1.2-0.5,1.2-1.2c0-0.6-0.5-1.2-1.2-1.2H38c-0.6,0-1.2,0.5-1.2,1.2
			C36.9,71,37.4,71.5,38,71.5z"/>
	</g>
	<g>
		<path class="st1" d="M38,67.1h4.8c0.6,0,1.2-0.5,1.2-1.2c0-0.6-0.5-1.2-1.2-1.2H38c-0.6,0-1.2,0.5-1.2,1.2
			C36.9,66.6,37.4,67.1,38,67.1z"/>
	</g>
	<g>
		<path class="st1" d="M42.8,89.8H38c-0.6,0-1.2,0.5-1.2,1.2c0,0.6,0.5,1.2,1.2,1.2h4.8c0.6,0,1.2-0.5,1.2-1.2
			C44,90.3,43.5,89.8,42.8,89.8z"/>
	</g>
	<g>
		<path class="st1" d="M42.8,85.3H38c-0.6,0-1.2,0.5-1.2,1.2c0,0.6,0.5,1.2,1.2,1.2h4.8c0.6,0,1.2-0.5,1.2-1.2
			C44,85.9,43.5,85.3,42.8,85.3z"/>
	</g>
	<g>
		<path class="st1" d="M32.8,42.4h1.4l7.2,4.4c0,0,0,0,0,0c0,0,0.1,0,0.1,0.1c0,0,0,0,0,0c0,0,0.1,0,0.1,0c0,0,0,0,0,0
			c0,0,0.1,0,0.1,0c0,0,0,0,0,0c0,0,0.1,0,0.1,0h15.4c0.6,0,1.2-0.5,1.2-1.2s-0.5-1.2-1.2-1.2H43.3v-6.8H101v6.8H62.1
			c-0.6,0-1.2,0.5-1.2,1.2s0.5,1.2,1.2,1.2h40c0.6,0,1-0.4,1.1-0.9h3.3c2.7,0,4.8-2.2,4.8-4.8c0-2.7-2.2-4.8-4.8-4.8h-3.3
			c-0.1-0.5-0.6-0.9-1.1-0.9H42.1c0,0,0,0,0,0c0,0,0,0,0,0c0,0-0.1,0-0.1,0c0,0,0,0,0,0c0,0-0.1,0-0.1,0c0,0,0,0,0,0
			c0,0-0.1,0-0.1,0c0,0,0,0,0,0c0,0-0.1,0-0.1,0.1c0,0,0,0,0,0l-7.2,4.4h-1.4c-0.6,0-1.2,0.5-1.2,1.2C31.7,41.9,32.2,42.4,32.8,42.4
			z M109.1,41.2c0,1.4-1.1,2.5-2.5,2.5h-3.3v-5h3.3C108,38.7,109.1,39.9,109.1,41.2z M40.9,38.7v5l-4.1-2.5L40.9,38.7z"/>
	</g>
</g>
</svg>
