<?xml version="1.0" encoding="utf-8"?>
<!-- Generator: Adobe Illustrator 22.0.1, SVG Export Plug-In . SVG Version: 6.00 Build 0)  -->
<svg version="1.1" id="Layer_1" xmlns="http://www.w3.org/2000/svg" xmlns:xlink="http://www.w3.org/1999/xlink" x="0px" y="0px"
	 viewBox="0 0 67 76" style="enable-background:new 0 0 67 76;" xml:space="preserve">
<style type="text/css">
	.st0{fill:url(#SVGID_1_);}
	.st1{fill:url(#SVGID_2_);}
	.st2{fill:url(#SVGID_3_);}
	.st3{fill:url(#SVGID_4_);}
	.st4{fill:url(#SVGID_5_);}
	.st5{fill:url(#SVGID_6_);}
	.st6{fill:url(#SVGID_7_);}
</style>
<g>
	<g>
		
			<linearGradient id="SVGID_1_" gradientUnits="userSpaceOnUse" x1="17.876" y1="29.0703" x2="93.1197" y2="29.0703" gradientTransform="matrix(0.866 0.5 -0.5 0.866 -3.258358e-02 -14.9247)">
			<stop  offset="0" style="stop-color:#00A0E3"/>
			<stop  offset="0.5589" style="stop-color:#00AD66"/>
			<stop  offset="0.999" style="stop-color:#AFD136"/>
		</linearGradient>
		<path class="st0" d="M67,53.7l0-14.3l0,0l0,0l0-17.2c0-2-1.1-3.9-2.9-4.9L33.5,0l-5.1,2.9L18,8.8L2.9,17.4c-1.8,1-2.9,2.9-2.9,4.9
			l0,31.5c0,2,1.1,3.9,2.9,4.9L33.5,76l5.1-2.9L49,67.2l15.2-8.6C65.9,57.6,67,55.8,67,53.7z M61.9,24.8l0,8.9l-7.8-4.4L61.9,24.8z
			 M59.3,38L33.5,52.7l-10.4-5.9L36,39.4L49,32.1L59.3,38z M33.5,5.8l25.9,14.7L49,26.3L23.1,11.7L33.5,5.8z M5.1,21.9L18,14.6
			l25.9,14.7L18,43.9L5.1,36.6L5.1,21.9z M5.1,51.2l0-8.9l7.8,4.4L5.1,51.2z M7.6,55.6L18,49.7l10.4,5.9l0,0L18,61.4L7.6,55.6z
			 M33.5,70.2l-10.4-5.9l10.4-5.9l0,0l0,0l10.4,5.9L33.5,70.2z M49,61.4l-10.4-5.9l23.3-13.2l0,11.8L49,61.4z"/>
		<linearGradient id="SVGID_2_" gradientUnits="userSpaceOnUse" x1="54.9893" y1="29.7908" x2="49.0977" y2="33.2275">
			<stop  offset="0" style="stop-color:#3A9F4D"/>
			<stop  offset="0.999" style="stop-color:#279B4F"/>
		</linearGradient>
		<polygon class="st1" points="49,32.1 54.1,29.2 56.1,30.4 51,33.2 		"/>
		<linearGradient id="SVGID_3_" gradientUnits="userSpaceOnUse" x1="18.0221" y1="48.7882" x2="25.1154" y2="48.7882">
			<stop  offset="0" style="stop-color:#009472"/>
			<stop  offset="0.999" style="stop-color:#009478"/>
		</linearGradient>
		<polygon class="st2" points="20,50.8 25.1,47.9 23.1,46.8 18,49.7 		"/>
		<linearGradient id="SVGID_4_" gradientUnits="userSpaceOnUse" x1="26.9709" y1="55.8605" x2="33.4518" y2="59.4937">
			<stop  offset="3.205128e-04" style="stop-color:#009758"/>
			<stop  offset="0.999" style="stop-color:#009954"/>
		</linearGradient>
		<polygon class="st3" points="26.5,56.7 31.6,59.5 33.5,58.4 28.4,55.6 		"/>
		<linearGradient id="SVGID_5_" gradientUnits="userSpaceOnUse" x1="41.9934" y1="64.2825" x2="47.9827" y2="67.8172">
			<stop  offset="0" style="stop-color:#5FA545"/>
			<stop  offset="0.999" style="stop-color:#71A842"/>
		</linearGradient>
		<polygon class="st4" points="41.9,65.4 47,68.3 49,67.2 43.9,64.3 		"/>
		<linearGradient id="SVGID_6_" gradientUnits="userSpaceOnUse" x1="11.3117" y1="11.7005" x2="16.9078" y2="15.1367">
			<stop  offset="0" style="stop-color:#008AB2"/>
			<stop  offset="0.999" style="stop-color:#008DA7"/>
		</linearGradient>
		<polygon class="st5" points="11,12.8 16.1,15.7 18,14.6 12.9,11.7 		"/>
	</g>
	<linearGradient id="SVGID_7_" gradientUnits="userSpaceOnUse" x1="64.0939" y1="39.9342" x2="65.0584" y2="46.5887">
		<stop  offset="0" style="stop-color:#7BAB41"/>
		<stop  offset="0.999" style="stop-color:#75AB42"/>
	</linearGradient>
	<polygon class="st6" points="61.9,42.4 67,39.5 67,42.4 61.9,45.3 	"/>
</g>
</svg>
